<?xml version="1.0" encoding="utf-8"?>
<!-- Generator: Adobe Illustrator 16.0.0, SVG Export Plug-In . SVG Version: 6.00 Build 0)  -->
<!DOCTYPE svg PUBLIC "-//W3C//DTD SVG 1.1//EN" "http://www.w3.org/Graphics/SVG/1.1/DTD/svg11.dtd">
<svg version="1.1" id="Camada_1" xmlns="http://www.w3.org/2000/svg" xmlns:xlink="http://www.w3.org/1999/xlink" x="0px" y="0px"
	 width="117.983px" height="24.309px" viewBox="0 0 117.983 24.309" enable-background="new 0 0 117.983 24.309"
	 xml:space="preserve">
<title>Bis2Bis</title>
<g>
	<rect x="22.796" y="4.873" fill="#3C3C3B" width="3.157" height="19.426"/>
	<path fill="#3C3C3B" d="M39.909,24.297h-4.706c-2.929-0.004-5.302-2.377-5.306-5.306v-0.739h3.157v0.739
		c0,1.19,0.963,2.154,2.153,2.154h4.701c1.146-0.001,2.074-0.931,2.075-2.075c0.004-1-0.687-1.871-1.661-2.094l-6.313-1.473
		c-2.406-0.552-4.11-2.697-4.103-5.166v-0.156c0.004-2.928,2.378-5.301,5.306-5.305h3.877c2.928,0.002,5.301,2.377,5.305,5.305
		v0.313H41.23v-0.313c0-1.189-0.965-2.154-2.154-2.154h-3.877c-1.189,0-2.154,0.964-2.154,2.154v0.156
		c-0.004,1,0.687,1.869,1.661,2.094l6.314,1.472c2.833,0.656,4.598,3.485,3.94,6.317C44.415,22.58,42.33,24.262,39.909,24.297z"/>
	<path fill="#3C3C3B" d="M15.815,11.354c1.167-1.294,1.813-2.976,1.813-4.718V5.984C17.622,2.683,14.947,0.008,11.645,0H0v19.043
		c0,2.907,2.357,5.266,5.267,5.266h7.596c3.302-0.008,5.976-2.684,5.984-5.983v-1.75C18.853,14.414,17.694,12.42,15.815,11.354z
		 M3.161,3.159h8.478C13.2,3.16,14.464,4.424,14.47,5.983v0.647c-0.002,2.172-1.762,3.931-3.933,3.933H3.162L3.161,3.159
		L3.161,3.159z M15.693,18.308c-0.001,1.562-1.268,2.829-2.829,2.832H5.255c-1.155-0.003-2.093-0.94-2.094-2.097v-5.313h9.703
		c1.563,0.001,2.828,1.267,2.829,2.829L15.693,18.308L15.693,18.308z"/>
	<rect x="95.658" y="4.873" fill="#3C3C3B" width="3.158" height="19.426"/>
	<path fill="#3C3C3B" d="M112.762,24.297h-4.695c-2.93-0.004-5.303-2.377-5.307-5.306v-0.739h3.156v0.739
		c0,1.19,0.965,2.154,2.154,2.154h4.695c1.145-0.001,2.072-0.931,2.074-2.075c-0.002-0.999-0.688-1.865-1.66-2.094l-6.314-1.473
		c-2.406-0.552-4.111-2.697-4.102-5.166v-0.156c0.004-2.928,2.377-5.301,5.307-5.305h3.879c2.928,0.002,5.303,2.375,5.307,5.305
		v0.313h-3.166v-0.313c0-1.189-0.965-2.154-2.154-2.154h-3.869c-1.189,0-2.154,0.964-2.154,2.154v0.156
		c-0.004,1,0.686,1.869,1.66,2.094l6.314,1.472c2.836,0.646,4.609,3.468,3.965,6.304c-0.543,2.383-2.652,4.077-5.096,4.096
		L112.762,24.297z"/>
	<path fill="#3C3C3B" d="M88.678,11.354c1.166-1.295,1.811-2.976,1.811-4.718V5.984C90.488,2.68,87.811,0,84.506,0l0,0H72.863
		v19.043c0,2.902,2.352,5.258,5.254,5.266h7.605c3.303-0.008,5.977-2.684,5.982-5.983v-1.75
		C91.713,14.416,90.555,12.42,88.678,11.354z M76.023,3.159H84.5c1.561,0.001,2.826,1.265,2.83,2.824v0.647
		c-0.004,2.17-1.762,3.929-3.93,3.933h-7.377V3.159z M88.555,18.308c-0.002,1.563-1.27,2.829-2.832,2.832h-7.605
		c-1.156-0.001-2.094-0.939-2.094-2.097v-5.313h9.699c1.563,0.001,2.83,1.267,2.832,2.829V18.308z"/>
	<path fill="#FC3A49" d="M52.751,24.297l5.153-3.828c1.284-0.942,2.835-1.449,4.427-1.448h5.791v5.266L52.751,24.297z"/>
	<path fill="#FC3A49" d="M49.076,19.933c0.004-1.481,0.716-2.87,1.915-3.739L61.93,8.088c0.57-0.385,0.799-1.115,0.547-1.758
		c-0.227-0.664-0.865-1.099-1.566-1.064H50.784V0h9.91c3.158,0,5.969,1.813,6.992,4.517c1.078,2.838,0.158,5.87-2.344,7.724
		L49.068,24.299L49.076,19.933z"/>
</g>
</svg>
