<svg xmlns="http://www.w3.org/2000/svg" xmlns:xlink="http://www.w3.org/1999/xlink" width="49" height="45" viewBox="0 0 49 45">
  <defs>
    <style>
      .cls-1 {
        fill: #44c0b7;
        stroke: #252158;
        stroke-width: 3px;
        fill-rule: evenodd;
        filter: url(#filter);
      }
    </style>
    <filter id="filter" x="1062" y="710" width="52" height="48" filterUnits="userSpaceOnUse">
      <feOffset result="offset" dy="1" in="SourceAlpha"/>
      <feGaussianBlur result="blur" stdDeviation="2.236"/>
      <feFlood result="flood" flood-opacity="0.6"/>
      <feComposite result="composite" operator="in" in2="blur"/>
      <feBlend result="blend" in="SourceGraphic"/>
    </filter>
  </defs>
  <g transform="translate(-1063.5 -711.5)" style="fill: #44c0b7; filter: url(#filter)">
    <path id="fa-credit-card" class="cls-1" d="M1071.38,723.681a2.547,2.547,0,0,0-1.61,1.256,2.627,2.627,0,0,0-.26,2.05l5.32,19.879a2.636,2.636,0,0,0,1.26,1.644,2.534,2.534,0,0,0,2.02.281l25.76-6.9a2.523,2.523,0,0,0,1.61-1.256,2.631,2.631,0,0,0,.27-2.05l-5.33-19.879a2.621,2.621,0,0,0-1.25-1.644,2.558,2.558,0,0,0-2.03-.281Zm26.32-4.81a0.522,0.522,0,0,1,.41.059,0.528,0.528,0,0,1,.25.326l0.98,3.662-26.79,7.179-0.98-3.662a0.533,0.533,0,0,1,.05-0.409,0.524,0.524,0,0,1,.32-0.253ZM1077.55,746.7a0.541,0.541,0,0,1-.65-0.384l-2.67-9.94,26.79-7.178,2.67,9.939a0.536,0.536,0,0,1-.06.409,0.494,0.494,0,0,1-.32.252Zm5.11-3.611L1082.1,741l-4.13,1.1,0.57,2.093Zm8.24-2.208-0.56-2.093-6.18,1.656,0.56,2.093Z" style="stroke: inherit; filter: none; fill: inherit"/>
  </g>
  <use transform="translate(-1063.5 -711.5)" xlink:href="#fa-credit-card" style="stroke: #252158; filter: none; fill: none"/>
</svg>
