<svg xmlns="http://www.w3.org/2000/svg" width="16" height="12" viewBox="0 0 16 12">
  <defs>
    <style>
      .cls-1 {
        fill: #44c0b7;
        fill-rule: evenodd;
      }
    </style>
  </defs>
  <path id="fa-envelope" class="cls-1" d="M1052.23,5285.2c-1.95,1.26-3.43,2.25-4.44,2.94-0.34.24-.62,0.43-0.83,0.56a4.706,4.706,0,0,1-.84.41,2.712,2.712,0,0,1-.99.21h-0.01a2.712,2.712,0,0,1-.99-0.21,4.706,4.706,0,0,1-.84-0.41c-0.21-.13-0.49-0.32-0.83-0.56q-1.2-.84-4.43-2.94a4.675,4.675,0,0,1-.91-0.74v6.77a1.259,1.259,0,0,0,.42.96,1.4,1.4,0,0,0,1.01.4h13.15a1.4,1.4,0,0,0,1.01-.4,1.259,1.259,0,0,0,.42-0.96v-6.77a5.075,5.075,0,0,1-.9.74h0Zm0.47-4.21a1.4,1.4,0,0,0-1-.4h-13.15a1.3,1.3,0,0,0-1.05.44,1.679,1.679,0,0,0-.38,1.11,1.959,1.959,0,0,0,.5,1.17,4.33,4.33,0,0,0,1.04.98c0.2,0.14.81,0.54,1.83,1.22s1.8,1.19,2.34,1.55c0.06,0.04.19,0.13,0.38,0.26s0.35,0.24.48,0.33,0.28,0.17.47,0.27a2.792,2.792,0,0,0,.51.23,1.528,1.528,0,0,0,.45.08h0.01a1.528,1.528,0,0,0,.45-0.08,2.792,2.792,0,0,0,.51-0.23c0.19-.1.34-0.19,0.47-0.27s0.29-.19.48-0.33,0.32-.22.38-0.26c0.55-.36,1.94-1.29,4.18-2.77a4.194,4.194,0,0,0,1.09-1.05,2.207,2.207,0,0,0,.44-1.29A1.3,1.3,0,0,0,1052.7,5280.99Z" transform="translate(-1037.13 -5280.59)"/>
</svg>
