<svg xmlns="http://www.w3.org/2000/svg" width="45" height="34" viewBox="0 0 45 34">
  <defs>
    <style>
      .cls-1 {
        fill: #44c0b7;
        fill-rule: evenodd;
      }
    </style>
  </defs>
  <path id="fa-envelope" class="cls-1" d="M356.614,4909.65q-8.236,5.37-12.506,8.34c-0.954.67-1.729,1.2-2.323,1.58a14.9,14.9,0,0,1-2.372,1.16,7.576,7.576,0,0,1-2.763.59H336.6a7.571,7.571,0,0,1-2.763-.59,14.9,14.9,0,0,1-2.372-1.16c-0.595-.38-1.369-0.91-2.323-1.58q-3.39-2.4-12.481-8.34a13.094,13.094,0,0,1-2.536-2.1v19.18a3.662,3.662,0,0,0,1.18,2.73,3.939,3.939,0,0,0,2.838,1.14h36.964a3.939,3.939,0,0,0,2.838-1.14,3.665,3.665,0,0,0,1.18-2.73v-19.18a13.913,13.913,0,0,1-2.511,2.1h0Zm1.318-11.93a3.951,3.951,0,0,0-2.825-1.14H318.143a3.644,3.644,0,0,0-2.976,1.26,4.767,4.767,0,0,0-1.042,3.14,5.529,5.529,0,0,0,1.381,3.3,12.4,12.4,0,0,0,2.938,2.79q0.853,0.57,5.148,3.44t6.579,4.41c0.168,0.11.523,0.36,1.067,0.74s1,0.68,1.356.91,0.8,0.5,1.306.79a7.425,7.425,0,0,0,1.444.65,3.989,3.989,0,0,0,1.256.22h0.05a3.994,3.994,0,0,0,1.256-.22,7.425,7.425,0,0,0,1.444-.65c0.51-.29.945-0.55,1.3-0.79s0.812-.54,1.356-0.91,0.9-.63,1.068-0.74q2.31-1.545,11.752-7.85a11.7,11.7,0,0,0,3.064-2.97,6.242,6.242,0,0,0,1.23-3.65A3.645,3.645,0,0,0,357.932,4897.72Z" transform="translate(-314.125 -4896.59)"/>
</svg>
