<svg xmlns="http://www.w3.org/2000/svg" width="23" height="23" viewBox="0 0 23 23">
  <defs>
    <style>
      .cls-1 {
        fill: #44c0b7;
        fill-rule: evenodd;
      }
    </style>
  </defs>
  <path id="fa-facebook-square" class="cls-1" d="M427.314,852.017A4.321,4.321,0,0,0,423,856.331v14.382a4.321,4.321,0,0,0,4.314,4.314h7.97v-8.913h-3v-3.477h3v-2.56a4.529,4.529,0,0,1,1.221-3.387,4.452,4.452,0,0,1,3.258-1.2,20.223,20.223,0,0,1,2.666.135v3.1l-1.827.014a1.744,1.744,0,0,0-1.371.42,1.917,1.917,0,0,0-.352,1.258v2.216h3.43l-0.449,3.477h-2.981v8.913H441.7a4.322,4.322,0,0,0,4.315-4.314V856.331a4.322,4.322,0,0,0-4.315-4.314H427.314Z" transform="translate(-423 -852.031)"/>
</svg>
