<svg xmlns="http://www.w3.org/2000/svg" width="10" height="16" viewBox="0 0 10 16">
  <defs>
    <style>
      .cls-1 {
        fill: #44c0b7;
        fill-rule: evenodd;
      }
    </style>
  </defs>
  <path id="fa-map-marker" class="cls-1" d="M1041.63,5246.78a2.345,2.345,0,0,1-1.77-.78,2.8,2.8,0,0,1,0-3.77,2.345,2.345,0,0,1,1.77-.78,2.309,2.309,0,0,1,1.76.78,2.771,2.771,0,0,1,0,3.77A2.309,2.309,0,0,1,1041.63,5246.78Zm3.53-6.43a4.785,4.785,0,0,0-7.07,0,5.3,5.3,0,0,0-1.47,3.77,4.523,4.523,0,0,0,.33,1.86l3.56,8.06a1.157,1.157,0,0,0,.46.54,1.173,1.173,0,0,0,1.31,0,1.237,1.237,0,0,0,.47-0.54l3.55-8.06a4.523,4.523,0,0,0,.33-1.86A5.3,5.3,0,0,0,1045.16,5240.35Z" transform="translate(-1036.63 -5238.78)"/>
</svg>
