<svg xmlns="http://www.w3.org/2000/svg" xmlns:xlink="http://www.w3.org/1999/xlink" width="40" height="45" viewBox="0 0 40 45">
  <defs>
    <style>
      .cls-1 {
        fill: #44c0b7;
        stroke: #252158;
        stroke-width: 3px;
        fill-rule: evenodd;
        filter: url(#filter);
      }
    </style>
    <filter id="filter" x="1428" y="710" width="43" height="48" filterUnits="userSpaceOnUse">
      <feOffset result="offset" dy="1" in="SourceAlpha"/>
      <feGaussianBlur result="blur" stdDeviation="2.236"/>
      <feFlood result="flood" flood-opacity="0.6"/>
      <feComposite result="composite" operator="in" in2="blur"/>
      <feBlend result="blend" in="SourceGraphic"/>
    </filter>
  </defs>
  <g transform="translate(-1429.5 -711.5)" style="fill: #44c0b7; filter: url(#filter)">
    <path id="fa-shield" class="cls-1" d="M1456.71,741.169a26.8,26.8,0,0,1-3.13,3.646l-5.61-21.555,8-2.206,3.16,12.133q0.855,3.336-2.42,7.982h0Zm1.49-24.247a1.083,1.083,0,0,0-.89-0.139l-20.58,5.675a1.141,1.141,0,0,0-.71.581,1.253,1.253,0,0,0-.11.947l3.79,14.56a9.27,9.27,0,0,0,1.44,3.068,12.07,12.07,0,0,0,2.22,2.434,17.473,17.473,0,0,0,2.73,1.836,25.769,25.769,0,0,0,2.77,1.33c0.83,0.327,1.67.618,2.55,0.873,0.86,0.254,1.48.42,1.84,0.5s0.64,0.133.86,0.169a1.026,1.026,0,0,0,.92-0.256q0.255-.212.66-0.588c0.28-.252.73-0.712,1.36-1.38s1.22-1.356,1.78-2.064a27.1,27.1,0,0,0,1.75-2.577,17.93,17.93,0,0,0,1.47-3,12.6,12.6,0,0,0,.75-3.253,9.382,9.382,0,0,0-.25-3.4l-3.79-14.56A1.2,1.2,0,0,0,1458.2,716.922Z" style="stroke: inherit; filter: none; fill: inherit"/>
  </g>
  <use transform="translate(-1429.5 -711.5)" xlink:href="#fa-shield" style="stroke: #252158; filter: none; fill: none"/>
</svg>
