<svg xmlns="http://www.w3.org/2000/svg" width="42" height="34.968" viewBox="0 0 42 34.968">
  <defs>
    <style>
      .cls-1 {
        fill: #44c0b7;
        stroke: #252158;
        stroke-width: 3px;
        fill-rule: evenodd;
      }
    </style>
  </defs>
  <path id="fa-truck" class="cls-1" d="M345.008,741.53a2.434,2.434,0,0,0,1.538-1.225,2.649,2.649,0,0,0-.961-3.591,2.462,2.462,0,0,0-3.482.935,2.65,2.65,0,0,0,.961,3.591A2.429,2.429,0,0,0,345.008,741.53Zm1.377-14.694a0.628,0.628,0,0,0-.292-0.392l-4.813-2.877a0.589,0.589,0,0,0-.474-0.066l-3.057.82,1.366,5.107,7.43-1.993Zm-18.713,19.346a2.431,2.431,0,0,0,1.538-1.225,2.65,2.65,0,0,0-.96-3.591,2.463,2.463,0,0,0-3.483.935,2.65,2.65,0,0,0,.961,3.591A2.429,2.429,0,0,0,327.672,746.182Zm-13.792-23.26a1.218,1.218,0,0,1,.769-0.612l19.812-5.317a1.22,1.22,0,0,1,.972.146,1.288,1.288,0,0,1,.608.8l1.025,3.831,3.1-.831a3,3,0,0,1,1.2-.045,3.057,3.057,0,0,1,1.148.376l4.887,2.922a2.778,2.778,0,0,1,.6.482,3.725,3.725,0,0,1,.433.535,3.507,3.507,0,0,1,.323.705q0.165,0.457.233,0.675c0.046,0.144.113,0.4,0.2,0.757s0.149,0.6.177,0.7l1.708,6.382a1.213,1.213,0,0,1,.972.146,1.292,1.292,0,0,1,.608.8,1.708,1.708,0,0,1,.064.549,0.786,0.786,0,0,1-.163.44c-0.1.125-.183,0.23-0.258,0.314a1.062,1.062,0,0,1-.422.242l-0.425.157c-0.076.027-.24,0.072-0.493,0.132s-0.4.1-.438,0.107l-1.239.332a5.171,5.171,0,0,1-.485,4,5.019,5.019,0,0,1-7,1.88,5.174,5.174,0,0,1-2.417-3.222l-7.429,1.994a5.18,5.18,0,0,1-.485,4,5.019,5.019,0,0,1-7,1.88,5.172,5.172,0,0,1-2.418-3.222l-0.432.127q-0.375.113-.493,0.133l-0.447.076a1.056,1.056,0,0,1-.486,0q-0.159-.054-0.381-0.144a0.784,0.784,0,0,1-.36-0.3,1.733,1.733,0,0,1-.219-0.508l-5.465-20.425A1.3,1.3,0,0,1,313.88,722.922Z" transform="translate(-312.219 -715.438)"/>
</svg>
