<svg xmlns="http://www.w3.org/2000/svg" width="23" height="23" viewBox="0 0 23 23">
  <defs>
    <style>
      .cls-1 {
        fill: #44c0b7;
        fill-rule: evenodd;
      }
    </style>
  </defs>
  <path id="fa-twitter-square" class="cls-1" d="M473.6,860.871c0.009,0.089.015,0.224,0.015,0.4a9.055,9.055,0,0,1-1.491,4.95,9.416,9.416,0,0,1-1.8,2.053A8.116,8.116,0,0,1,467.8,869.7a9.179,9.179,0,0,1-3.146.531,8.822,8.822,0,0,1-4.823-1.408,6.018,6.018,0,0,0,.749.045,6.222,6.222,0,0,0,3.91-1.348,2.983,2.983,0,0,1-1.821-.63,3.2,3.2,0,0,1-1.116-1.557,4.225,4.225,0,0,0,.585.06,2.968,2.968,0,0,0,.764-0.12,3.148,3.148,0,0,1-1.843-1.086,2.989,2.989,0,0,1-.749-2v-0.029a3.7,3.7,0,0,0,1.5.389,2.966,2.966,0,0,1-1.363-2.622,3.114,3.114,0,0,1,.434-1.588,8.994,8.994,0,0,0,6.5,3.3,2.876,2.876,0,0,1-.075-0.719,3.146,3.146,0,0,1,3.146-3.146,2.993,2.993,0,0,1,2.292.989,6.246,6.246,0,0,0,2.007-.764,3.061,3.061,0,0,1-1.393,1.753,6.669,6.669,0,0,0,1.813-.51,6.126,6.126,0,0,1-1.573,1.634h0Zm4.142-7.588a4.152,4.152,0,0,0-3.049-1.266H460.314A4.322,4.322,0,0,0,456,856.331v14.382a4.322,4.322,0,0,0,4.314,4.314H474.7a4.322,4.322,0,0,0,4.315-4.314V856.331A4.155,4.155,0,0,0,477.744,853.283Z" transform="translate(-456 -852.031)"/>
</svg>
