<svg xmlns="http://www.w3.org/2000/svg" width="15" height="16" viewBox="0 0 15 16">
  <defs>
    <style>
      .cls-1 {
        fill: #44c0b7;
        fill-rule: evenodd;
      }
    </style>
  </defs>
  <path id="fa-whatsapp" class="cls-1" d="M1045.37,5210.62a0.511,0.511,0,0,1-.22-0.07,5.921,5.921,0,0,1-1.47-1.05,4.686,4.686,0,0,1-1-1.41,0.374,0.374,0,0,1-.05-0.15,1.359,1.359,0,0,1,.34-0.48,1.094,1.094,0,0,0,.34-0.6,5.64,5.64,0,0,0-.25-0.77c-0.16-.47-0.27-0.77-0.32-0.91a0.691,0.691,0,0,0-.15-0.28,0.368,0.368,0,0,0-.26-0.07,1.624,1.624,0,0,1-.18-0.02c-0.08,0-.14-0.01-0.18-0.01a0.7,0.7,0,0,0-.51.23,2.335,2.335,0,0,0-.72,1.63v0.08a3.7,3.7,0,0,0,.69,2,13.708,13.708,0,0,0,1.45,1.91,5.622,5.622,0,0,0,1.66,1.22,5.16,5.16,0,0,0,1.85.64,2.142,2.142,0,0,0,1-.28,1.326,1.326,0,0,0,.69-0.67,2.346,2.346,0,0,0,.17-0.79,0.542,0.542,0,0,0-.02-0.15,5.146,5.146,0,0,0-.88-0.55,4.235,4.235,0,0,0-.95-0.45,1.357,1.357,0,0,0-.51.5,1.222,1.222,0,0,1-.52.5h0Zm-4.32,3.39-2.36.8,0.77-2.41a6.724,6.724,0,0,1-.68-6.31,6.468,6.468,0,0,1,1.31-2.07,6.377,6.377,0,0,1,1.95-1.38,5.808,5.808,0,0,1,4.76,0,6.377,6.377,0,0,1,1.95,1.38,6.468,6.468,0,0,1,1.31,2.07,6.7,6.7,0,0,1,0,5.03,6.468,6.468,0,0,1-1.31,2.07,6.212,6.212,0,0,1-1.95,1.38,5.761,5.761,0,0,1-5.75-.56h0Zm-1.83-10.9a7.775,7.775,0,0,0-1.57,2.48,8.115,8.115,0,0,0,.46,7.03l-1.32,4.18,4.07-1.38a6.978,6.978,0,0,0,3.56.97,6.8,6.8,0,0,0,2.85-.62,7.632,7.632,0,0,0,2.35-1.66,8.063,8.063,0,0,0,1.57-8.52,7.775,7.775,0,0,0-1.57-2.48,7.311,7.311,0,0,0-2.35-1.66,6.86,6.86,0,0,0-5.7,0A7.2,7.2,0,0,0,1039.22,5203.11Z" transform="translate(-1036.78 -5200.81)"/>
</svg>
