<svg xmlns="http://www.w3.org/2000/svg" width="39" height="38.97" viewBox="0 0 39 38.97">
  <defs>
    <style>
      .cls-1 {
        fill: #44c0b7;
        fill-rule: evenodd;
      }
    </style>
  </defs>
  <path id="instagram" class="cls-1" d="M1323.23,5142h-17.47a10.77,10.77,0,0,0-10.76,10.76v17.46a10.77,10.77,0,0,0,10.76,10.76h17.47a10.763,10.763,0,0,0,10.76-10.76v-17.46A10.763,10.763,0,0,0,1323.23,5142Zm7.3,28.22a7.3,7.3,0,0,1-7.3,7.3h-17.47a7.309,7.309,0,0,1-7.3-7.3v-17.46a7.309,7.309,0,0,1,7.3-7.3h17.47a7.3,7.3,0,0,1,7.3,7.3v17.46Zm-16.03-18.78a10.05,10.05,0,1,0,10.04,10.05A10.063,10.063,0,0,0,1314.5,5151.44Zm0,16.64a6.59,6.59,0,1,1,6.59-6.59A6.6,6.6,0,0,1,1314.5,5168.08Zm10.47-19.57a2.539,2.539,0,0,0-1.8,4.33,2.523,2.523,0,0,0,3.59,0A2.54,2.54,0,0,0,1324.97,5148.51Z" transform="translate(-1295 -5142)"/>
</svg>
