<svg xmlns="http://www.w3.org/2000/svg" width="45" height="44.969" viewBox="0 0 45 44.969">
  <defs>
    <style>
      .cls-1 {
        fill: #fff;
        fill-rule: evenodd;
      }
    </style>
  </defs>
  <path id="play" class="cls-1" d="M379.984,773.247a22.5,22.5,0,1,0-8.235,30.735A22.5,22.5,0,0,0,379.984,773.247ZM369.5,800.084a18,18,0,1,1,6.589-24.586A18,18,0,0,1,369.5,800.084Zm-0.9-16.5-11.782-6.871a1.175,1.175,0,0,0-1.934,1.116l0.06,13.639a1.2,1.2,0,0,0,1.959,1.126l11.693-6.75A1.2,1.2,0,0,0,368.6,783.582Z" transform="translate(-338 -762)"/>
</svg>
